<svg xmlns="http://www.w3.org/2000/svg" width="97.151" height="97.177" viewBox="0 0 97.151 97.177"><defs><style>.a{fill:#fff;}</style></defs><path class="a" d="M48.607,0A48.4,48.4,0,0,0,24.225,6.57c-1.129.674-2.242,1.38-3.308,2.117A48.529,48.529,0,0,0,3.026,65.463c.157.47.345.925.533,1.38Q4.03,68,4.547,69.1c.125.282.251.565.392.847A48.607,48.607,0,0,0,96.853,54.361c.141-1.113.251-2.242.3-3.371V48.607A48.606,48.606,0,0,0,48.607,0ZM3.136,48.607A45.473,45.473,0,0,1,24.4,10.145a30,30,0,0,1,12.544,11.54A7.84,7.84,0,0,0,41.112,35.8V36.91A29.555,29.555,0,0,1,39.9,45.2,79.825,79.825,0,0,0,5.911,64.459,45.033,45.033,0,0,1,3.136,48.607Zm35.546.219A29.791,29.791,0,0,1,11.4,66.686a28.1,28.1,0,0,1-3.057-.157,76.832,76.832,0,0,1,30.34-17.718Zm9.925,45.252A45.472,45.472,0,0,1,8.326,69.665c1.019.094,2.038.157,3.136.157a32.929,32.929,0,0,0,31.03-22.03,76.643,76.643,0,0,1,51.445,5.065,45.471,45.471,0,0,1-45.33,41.222ZM94.078,49.5a79.4,79.4,0,0,0-50.6-5.159,33.281,33.281,0,0,0,.878-7.448V35.326a7.84,7.84,0,0,0-2.666-15.178,7.184,7.184,0,0,0-1.756.219A33.335,33.335,0,0,0,27.722,8.279,45.471,45.471,0,0,1,94.172,48.607a3.3,3.3,0,0,0-.126.878Z" transform="translate(0 0)"/></svg>