<svg xmlns="http://www.w3.org/2000/svg" xmlns:xlink="http://www.w3.org/1999/xlink" width="96" height="96" viewBox="0 0 96 96"><defs><style>.a{fill:#fff;}.b{clip-path:url(#a);}.c,.d{fill:none;stroke-linecap:round;stroke-linejoin:round;stroke-miterlimit:10;}.c{stroke:#000;}.d{stroke:#051caf;}</style><clipPath id="a"><rect class="a" width="96" height="96"/></clipPath></defs><g class="b"><path class="c" d="M5.156,45.4V8.992"/><path class="c" d="M5.156,87.052V50.589"/><path class="c" d="M45.419,90.844H8.96"/><path class="c" d="M72.088,90.844H50.565"/><path class="c" d="M87.048,90.844H78.661"/><path class="c" d="M90.844,50.553V87.06"/><path class="c" d="M90.844,8.928V45.455"/><path class="c" d="M50.557,5.156H87.072"/><path class="c" d="M24.861,5.156H45.439"/><path class="c" d="M8.964,5.156H18.1"/><path class="c" d="M8.906,1.406h-7.5v7.5h7.5Z"/><path class="c" d="M94.594,1.406h-7.5v7.5h7.5Z"/><path class="c" d="M93.375,45.469H88.313v5.062h5.063Z"/><path class="c" d="M7.688,45.469H2.625v5.062H7.688Z"/><path class="c" d="M50.531,2.625H45.469V7.688h5.062Z"/><path class="c" d="M50.531,88.313H45.469v5.063h5.062Z"/><path class="c" d="M8.906,87.094h-7.5v7.5h7.5Z"/><path class="c" d="M94.594,87.094h-7.5v7.5h7.5Z"/><path class="d" d="M55.158,33.157l-5.3-15.109A2.3,2.3,0,0,0,48,16.534a2.278,2.278,0,0,0-.308-.021H39.186a2.3,2.3,0,0,0-2.167,1.535L15.9,78.264a.919.919,0,0,0,.867,1.222h6.975a2.3,2.3,0,0,0,2.153-1.5l.982-2.643m2.3-6.191,1.151-3.1H56.584l4.388,11.924a2.3,2.3,0,0,0,2.155,1.5h6.986a.92.92,0,0,0,.867-1.222L57.338,39.373M33.386,56.683,43.439,27.835l4.575,13.046,5.542,15.8Z"/><path class="d" d="M39.448,66.059,35.014,77.99a2.3,2.3,0,0,1-2.153,1.5H23.738"/><path class="d" d="M48.015,40.882l-5.506,15.8"/><path class="d" d="M47.691,16.513h9.123a2.3,2.3,0,0,1,2.167,1.535L80.1,78.264a.918.918,0,0,1-.867,1.222H70.114"/></g></svg>