<svg xmlns="http://www.w3.org/2000/svg" width="300.498" height="90.551" viewBox="0 0 300.498 90.551"><defs><style>.a{fill:#fff;}</style></defs><g transform="translate(-149.5 527.975)"><path class="a" d="M173.828-527.545a32.981,32.981,0,0,0-16.772,9.411,29.249,29.249,0,0,0-6.869,12.3l-.687,2.477v29.574c0,27.971.029,29.632.515,30.623a9.507,9.507,0,0,0,4.436,4.4,6.858,6.858,0,0,0,4.064.961c4.064-.029,7.155-1.894,8.615-5.186l.687-1.515.143-27.826c.143-21.794.258-28.088.544-28.962a13.932,13.932,0,0,1,6.068-7.6c1.4-.786,1.775-.874,4.265-.874,2.433,0,2.891.087,4.293.816a13.142,13.142,0,0,1,5.925,6.905c.486,1.224.515,3.409.658,29.574l.143,28.263.658,1.253a10.32,10.32,0,0,0,4.494,4.312,7.058,7.058,0,0,0,3.835.816,8.962,8.962,0,0,0,5.953-1.661A9.322,9.322,0,0,0,208.288-445c.2-.932.315-10.285.315-27.709,0-28.7-.029-28,1.66-31.205a12.437,12.437,0,0,1,5.381-5.186,6.3,6.3,0,0,1,4.207-.758,8.546,8.546,0,0,1,3.892.932,12.618,12.618,0,0,1,6.3,9.207c.2,1.195.315,11.48.315,28.292,0,29.486-.114,27.913,2.032,30.39a10.6,10.6,0,0,0,3.062,2.273,6.8,6.8,0,0,0,4.207.932c5.009-.058,8.071-2.506,9.159-7.226.4-1.748.458-5.245.343-30.156-.086-24.65-.143-28.379-.544-30.069-2.576-10.81-12.593-20.134-23.841-22.26a32.247,32.247,0,0,0-12.193.408,34.8,34.8,0,0,0-11.534,5.8c-1.145.9-1.8,1.224-2.032,1.049-.2-.146-.8-.612-1.345-1.078a39.066,39.066,0,0,0-8.071-4.6A30.18,30.18,0,0,0,173.828-527.545Z" transform="translate(0)"/><path class="a" d="M542.483-522.339a9.509,9.509,0,0,0-6.211,5.275l-.773,1.486v75.19l.773,1.457a12.07,12.07,0,0,0,4.122,4.313,9.757,9.757,0,0,0,13.108-4.43l.6-1.341v-75.482l-.716-1.4a11.673,11.673,0,0,0-4.723-4.6A10.69,10.69,0,0,0,542.483-522.339Z" transform="translate(-273.407 -3.835)"/><path class="a" d="M681.007-518.249c-.773.117-8.558,3.324-17.316,7.115C635.642-499,627.6-494.4,623.536-488.011c-2.633,4.111-3.549,7.873-3.32,13.734a20.73,20.73,0,0,0,2.4,10.031,25.1,25.1,0,0,0,6.5,7.348c4.15,3,12.708,7.669,19.949,10.876,3.263,1.429,27.19,11.547,31.455,13.267,7.842,3.207,14.368-2.391,12.908-11.051a8.289,8.289,0,0,0-2.976-5.453c-2.118-1.749-2.834-2.07-14.539-6.444-17.516-6.5-24.557-9.506-29.308-12.422-3.778-2.3-5.123-3.528-6.01-5.394-.744-1.516-.773-1.72-.429-2.858.515-1.808,1.775-3.207,4.408-4.986,4.951-3.324,10.618-5.861,28.392-12.713,12.479-4.811,13.395-5.249,15.369-7,2.261-2.041,3.234-4.84,3.005-8.573C690.967-515.479,686.531-519.182,681.007-518.249Z" transform="translate(-332.75 -6.84)"/><path class="a" d="M1053.66-435.475c-1.66.887-1.66.859-1.66,15.427,0,14.654,0,14.568,1.746,15.455.744.4,2.519.458,13.938.372,12.765-.086,13.108-.115,14.654-.716,2.748-1.116,5.266-4.207,6.3-7.7a14.9,14.9,0,0,0,.229-4.15,9.892,9.892,0,0,0-.974-4.866,12.709,12.709,0,0,0-5.18-5.438c-1.345-.658-1.574-.687-9.817-.773-8.1-.086-8.472-.057-9.388.515a3.356,3.356,0,0,0-1.517,3.721,4.55,4.55,0,0,0,1.059,1.746c.744.687.744.687,8.7.83,7.9.143,7.985.143,8.7.83a7.173,7.173,0,0,1,1.6,4.179,7.172,7.172,0,0,1-1.6,4.179l-.744.687-9.874.086c-8.958.057-9.931.029-10.418-.4-.515-.458-.544-1.088-.544-11.191,0-9.016-.057-10.847-.429-11.534A3.591,3.591,0,0,0,1053.66-435.475Z" transform="translate(-638.899 -64.983)"/><path class="a" d="M780.5-410.485a4.691,4.691,0,0,0-1.431,1.03c-.544.6-.572,1.03-.572,8.128v7.47l.773,1.631a11.349,11.349,0,0,0,11.82,6.468,12.339,12.339,0,0,0,5.209-2.232c.715-.544.715-.544,1.631.114a10.991,10.991,0,0,0,14.425-.916,13.765,13.765,0,0,0,2.232-3.062l.83-1.717.086-7.3c.086-6.955.057-7.356-.515-8.243a3.5,3.5,0,0,0-5.524-.458l-.744.715-.086,6.783c-.086,6.468-.115,6.84-.744,7.814-1.775,2.862-5.095,2.833-6.783-.057-.515-.887-.572-1.631-.716-7.756-.143-6.669-.143-6.783-.83-7.5a3.463,3.463,0,0,0-5.209,0c-.687.715-.687.83-.83,7.7-.143,6.468-.172,7.041-.744,7.756a3.926,3.926,0,0,1-3.377,1.946,3.815,3.815,0,0,1-3.377-2.089c-.63-.973-.658-1.4-.8-7.756-.172-7.613-.258-8.042-2.2-8.558A2.666,2.666,0,0,0,780.5-410.485Z" transform="translate(-445.28 -82.77)"/><path class="a" d="M928.55-407.427c-5.524,1.774-8.758,8.529-7.069,14.911a10.877,10.877,0,0,0,5.781,7.356l1.918.944,11.792.086,11.792.086,1.088-1c.916-.83,1.088-1.145,1.088-2.175a2.33,2.33,0,0,0-1.088-2.175l-1.059-.973H942c-10.332,0-10.847-.029-11.763-.573a5.413,5.413,0,0,1-2.061-4.608c0-2.375.257-3.263,1.288-4.465l.944-1.088,11.334-.143,11.334-.143.887-.916a2.427,2.427,0,0,0,.916-2.232,2.428,2.428,0,0,0-.916-2.233l-.887-.916-11.677-.057C932.414-407.8,929.466-407.713,928.55-407.427Z" transform="translate(-545.415 -84.968)"/><path class="a" d="M958.752-374.624a2.284,2.284,0,0,0-1.2,2.347,3.862,3.862,0,0,0,.744,1.145l.573.658h19.977l.687-.715a2.046,2.046,0,0,0-.458-3.435C977.928-375.225,959.868-375.225,958.752-374.624Z" transform="translate(-571.438 -108.31)"/></g></svg>