<svg xmlns="http://www.w3.org/2000/svg" width="109.034" height="46.707" viewBox="0 0 109.034 46.707"><defs><style>.a{fill:#051caf;}</style></defs><g transform="translate(-149.5 527.975)"><path class="a" d="M162.049-527.753A17.012,17.012,0,0,0,153.4-522.9a15.087,15.087,0,0,0-3.543,6.342l-.354,1.278v15.254c0,14.428.015,15.285.266,15.8a4.9,4.9,0,0,0,2.288,2.269,3.538,3.538,0,0,0,2.1.5,4.6,4.6,0,0,0,4.444-2.675l.354-.781.074-14.353c.074-11.242.133-14.488.28-14.939a7.186,7.186,0,0,1,3.13-3.923,3.315,3.315,0,0,1,2.2-.451,3.626,3.626,0,0,1,2.214.421A6.779,6.779,0,0,1,169.9-514.6c.251.631.266,1.758.34,15.254l.074,14.578.34.646a5.323,5.323,0,0,0,2.318,2.224,3.641,3.641,0,0,0,1.978.421,4.623,4.623,0,0,0,3.071-.857,4.808,4.808,0,0,0,1.8-2.84c.1-.481.162-5.305.162-14.293,0-14.8-.015-14.443.856-16.1a6.415,6.415,0,0,1,2.775-2.675,3.252,3.252,0,0,1,2.17-.391,4.408,4.408,0,0,1,2.008.481,6.508,6.508,0,0,1,3.248,4.749c.1.616.162,5.922.162,14.593,0,15.209-.059,14.4,1.048,15.675a5.469,5.469,0,0,0,1.58,1.172,3.506,3.506,0,0,0,2.17.481,4.432,4.432,0,0,0,4.724-3.727c.207-.9.236-2.705.177-15.555-.044-12.715-.074-14.638-.28-15.51a16.1,16.1,0,0,0-12.3-11.482,16.634,16.634,0,0,0-6.289.21,17.951,17.951,0,0,0-5.949,2.991c-.591.466-.93.631-1.048.541s-.413-.316-.694-.556a20.15,20.15,0,0,0-4.163-2.375A15.567,15.567,0,0,0,162.049-527.753Z"/><path class="a" d="M539.1-522.466a4.9,4.9,0,0,0-3.2,2.721l-.4.767v38.784l.4.752a6.226,6.226,0,0,0,2.126,2.225,5.033,5.033,0,0,0,6.761-2.285l.31-.691v-38.934l-.369-.722a6.021,6.021,0,0,0-2.436-2.375A5.514,5.514,0,0,0,539.1-522.466Z" transform="translate(-327.923 -4.58)"/><path class="a" d="M651.556-518.318c-.4.06-4.414,1.715-8.932,3.67-14.468,6.257-18.616,8.633-20.712,11.927a11.029,11.029,0,0,0-1.713,7.084,10.694,10.694,0,0,0,1.24,5.174,12.946,12.946,0,0,0,3.351,3.79,67.792,67.792,0,0,0,10.29,5.61c1.683.737,14.025,5.956,16.225,6.843,4.045,1.654,7.411-1.233,6.658-5.7a4.276,4.276,0,0,0-1.535-2.813c-1.093-.9-1.462-1.068-7.5-3.324-9.035-3.354-12.667-4.9-15.117-6.407-1.949-1.188-2.643-1.82-3.1-2.783-.384-.782-.4-.887-.221-1.474a4.789,4.789,0,0,1,2.273-2.572c2.554-1.715,5.477-3.023,14.645-6.558,6.437-2.482,6.909-2.707,7.928-3.61a5.141,5.141,0,0,0,1.55-4.422A4.479,4.479,0,0,0,651.556-518.318Z" transform="translate(-399.535 -8.168)"/></g></svg>