<svg xmlns="http://www.w3.org/2000/svg" width="97.41" height="95.838" viewBox="0 0 97.41 95.838"><defs><style>.a{fill:#fff;fill-rule:evenodd;}</style></defs><path class="a" d="M42.42,13.355v28.28a10.212,10.212,0,1,1-20.425,0V13.355a10.212,10.212,0,1,1,20.425,0Zm-23.567,0a13.355,13.355,0,1,1,26.709,0v28.28a13.355,13.355,0,1,1-26.709,0ZM65.2,34.565a8.641,8.641,0,1,0-8.641-8.641A8.641,8.641,0,0,0,65.2,34.565Zm0,3.142A11.783,11.783,0,1,0,53.418,25.923,11.783,11.783,0,0,0,65.2,37.707Zm2.142,54.424A48.7,48.7,0,0,1,0,47.134V45.563H11.783V48.7H3.169a45.563,45.563,0,0,0,91.071,0H52.633V45.563H97.41v1.571a48.705,48.705,0,0,1-30.066,45Z"/></svg>