<svg xmlns="http://www.w3.org/2000/svg" width="91.375" height="91.375" viewBox="0 0 91.375 91.375"><defs><style>.a,.b{fill:none;stroke-linecap:round;stroke-linejoin:round;stroke-miterlimit:10;}.a{stroke:#000;}.b{stroke:#051caf;}</style></defs><g transform="translate(-2.313 -2.313)"><path class="a" d="M48,63.634a5.625,5.625,0,1,0-5.625-5.625A5.625,5.625,0,0,0,48,63.634Z"/><path class="a" d="M48,52.384V29.607"/><path class="a" d="M48,29.607h9.375L70.2,64.4s-8.614,7.3-9.958,15.667H35.76C34.416,71.7,25.8,64.4,25.8,64.4L38.625,29.607Z"/><path class="a" d="M30.241,80.063H65.759"/><path class="a" d="M60.2,80.063H35.8V93.188H60.2Z"/><path class="b" d="M53.625,8.438A5.625,5.625,0,1,1,48,2.813,5.625,5.625,0,0,1,53.625,8.438Z"/><path class="b" d="M8.438,53.625A5.625,5.625,0,1,1,14.063,48,5.625,5.625,0,0,1,8.438,53.625Z"/><path class="b" d="M87.563,53.625A5.625,5.625,0,1,1,93.188,48,5.625,5.625,0,0,1,87.563,53.625Z"/><path class="b" d="M8.835,42.375a39.588,39.588,0,0,1,33.54-33.54H8.835"/><path class="b" d="M87.165,42.375a39.588,39.588,0,0,0-33.54-33.54h33.54"/></g></svg>