<svg xmlns="http://www.w3.org/2000/svg" width="94.188" height="76.715" viewBox="0 0 94.188 76.715"><defs><style>.a,.b{fill:none;stroke-linecap:round;stroke-linejoin:round;stroke-miterlimit:10;}.a{stroke:#051caf;}.b{stroke:#000;}</style></defs><g transform="translate(-0.906 -9.643)"><path class="a" d="M61.444,35.024a1.412,1.412,0,0,0-.329.068L57.77,36.206a1.4,1.4,0,0,1-1.058-.07,19.61,19.61,0,0,0-2.367-.981,1.4,1.4,0,0,1-.8-.7L51.973,31.3a1.406,1.406,0,0,0-1.258-.777h-5.43a1.406,1.406,0,0,0-1.258.777l-1.576,3.152a1.4,1.4,0,0,1-.8.7,19.535,19.535,0,0,0-2.366.981,1.4,1.4,0,0,1-1.058.07l-3.344-1.115a1.406,1.406,0,0,0-1.439.34l-3.84,3.84a1.406,1.406,0,0,0-.34,1.439l1.115,3.344a1.4,1.4,0,0,1-.07,1.058,19.6,19.6,0,0,0-.981,2.366,1.4,1.4,0,0,1-.7.8L25.48,49.851a1.406,1.406,0,0,0-.777,1.258v5.43A1.406,1.406,0,0,0,25.48,57.8l3.152,1.576a1.394,1.394,0,0,1,.7.8,19.519,19.519,0,0,0,.981,2.367,1.4,1.4,0,0,1,.07,1.058l-1.115,3.344a1.406,1.406,0,0,0,.34,1.439l3.84,3.84a1.406,1.406,0,0,0,1.439.34l3.344-1.115a1.4,1.4,0,0,1,1.058.07,19.611,19.611,0,0,0,2.366.981,1.4,1.4,0,0,1,.8.7l1.576,3.152a1.406,1.406,0,0,0,1.258.777h5.43a1.406,1.406,0,0,0,1.258-.777l1.576-3.152a1.394,1.394,0,0,1,.8-.7,19.525,19.525,0,0,0,2.367-.981,1.4,1.4,0,0,1,1.058-.07l3.344,1.115a1.406,1.406,0,0,0,1.439-.34l3.84-3.84a1.406,1.406,0,0,0,.34-1.439l-1.115-3.344a1.394,1.394,0,0,1,.07-1.058,19.61,19.61,0,0,0,.981-2.367,1.4,1.4,0,0,1,.7-.8L70.52,57.8a1.406,1.406,0,0,0,.777-1.258v-5.43a1.406,1.406,0,0,0-.777-1.258l-3.152-1.576a1.4,1.4,0,0,1-.7-.8,19.534,19.534,0,0,0-.981-2.366,1.4,1.4,0,0,1-.07-1.058l1.115-3.344a1.406,1.406,0,0,0-.34-1.439"/><path class="a" d="M39.264,48l-5.824,5.824,5.824,5.824"/><path class="a" d="M56.736,48l5.824,5.824-5.824,5.824"/><path class="a" d="M50.912,48,45.088,59.648"/><path class="b" d="M23.694,85.857H89.906a4.688,4.688,0,0,0,4.688-4.687V21.791"/><path class="b" d="M1.406,21.791V81.17a4.688,4.688,0,0,0,4.688,4.688H17.131"/><path class="b" d="M10.435,10.143H6.094A4.688,4.688,0,0,0,1.406,14.83v6.961H94.594V14.83a4.688,4.688,0,0,0-4.688-4.687H17"/><circle cx="1.406" cy="1.406" r="1.406" transform="translate(87.363 14.561)"/><circle cx="1.406" cy="1.406" r="1.406" transform="translate(81.539 14.561)"/><circle cx="1.406" cy="1.406" r="1.406" transform="translate(75.715 14.561)"/></g></svg>